<svg width="40" height="40" xmlns="http://www.w3.org/2000/svg" xmlns:undefined="http://www.inkscape.org/namespaces/inkscape" version="1.1" xml:space="preserve">
 <defs id="defs6">
  <clipPath id="clipPath36">
   <path  d="m3,7l18,0l0,16l-18,0l0,-16z" id="path38"/>
  </clipPath>
  <mask id="mask40">
   <g id="g42">
    <g clip-path="url(#clipPath36)" id="g44">
     <path fill-opacity="0.0586" fill="#000000"  d="m3,7l18,0l0,16l-18,0l0,-16z" id="path46"/>
    </g>
   </g>
  </mask>
  <clipPath id="clipPath52">
   <path  d="m3.07656,7l18,0l0,16l-18,0l0,-16z" id="path54"/>
  </clipPath>
  <clipPath id="clipPath56">
   <path  d="m3.07656,7l18,0l0,16l-18,0l0,-16z" id="path58"/>
  </clipPath>
  <clipPath id="clipPath80">
   <path  d="m12,4l18,0l0,19l-18,0l0,-19z" id="path82"/>
  </clipPath>
  <mask id="mask84">
   <g id="g86">
    <g clip-path="url(#clipPath80)" id="g88">
     <path fill-opacity="0.1211" fill="#000000"  d="m12,4l18,0l0,19l-18,0l0,-19z" id="path90"/>
    </g>
   </g>
  </mask>
  <clipPath id="clipPath96">
   <path  d="m12.07656,4l18,0l0,19l-18,0l0,-19z" id="path98"/>
  </clipPath>
  <clipPath id="clipPath100">
   <path  d="m12.07656,4l18,0l0,19l-18,0l0,-19z" id="path102"/>
  </clipPath>
  <clipPath id="clipPath124">
   <path  d="m4,10l13,0l0,12l-13,0l0,-12z" id="path126"/>
  </clipPath>
  <mask id="mask128">
   <g id="g130">
    <g clip-path="url(#clipPath124)" id="g132">
     <path fill-opacity="0.0898" fill="#000000"  d="m4,10l13,0l0,12l-13,0l0,-12z" id="path134"/>
    </g>
   </g>
  </mask>
  <clipPath id="clipPath140">
   <path  d="m4.07656,10l13,0l0,12l-13,0l0,-12z" id="path142"/>
  </clipPath>
  <clipPath id="clipPath144">
   <path  d="m4.07656,10l13,0l0,12l-13,0l0,-12z" id="path146"/>
  </clipPath>
  <clipPath id="clipPath168">
   <path  d="m7,15l3,0l0,4l-3,0l0,-4z" id="path170"/>
  </clipPath>
  <mask id="mask172">
   <g id="g174">
    <g clip-path="url(#clipPath168)" id="g176">
     <path fill-opacity="0.1797" fill="#000000"  d="m7,15l3,0l0,4l-3,0l0,-4z" id="path178"/>
    </g>
   </g>
  </mask>
  <clipPath id="clipPath184">
   <path  d="m7.07656,15l3,0l0,4l-3,0l0,-4z" id="path186"/>
  </clipPath>
  <clipPath id="clipPath188">
   <path  d="m7.07656,15l3,0l0,4l-3,0l0,-4z" id="path190"/>
  </clipPath>
  <clipPath id="clipPath212">
   <path  d="m7,14l2,0l0,2l-2,0l0,-2z" id="path214"/>
  </clipPath>
  <mask id="mask216">
   <g id="g218">
    <g clip-path="url(#clipPath212)" id="g220">
     <path fill-opacity="0.1797" fill="#000000"  d="m7,14l2,0l0,2l-2,0l0,-2z" id="path222"/>
    </g>
   </g>
  </mask>
  <clipPath id="clipPath228">
   <path  d="m7.07656,14l2,0l0,2l-2,0l0,-2z" id="path230"/>
  </clipPath>
  <clipPath id="clipPath232">
   <path  d="m7.07656,14l2,0l0,2l-2,0l0,-2z" id="path234"/>
  </clipPath>
  <clipPath id="clipPath316">
   <path  d="m14.34256,25.098l-0.633,0.105c-0.258,0.024 -0.469,0.024 -0.633,0l-0.176,-0.07l0.492,-0.106l0.317,-0.14l-0.774,0l0.668,-0.141c0.282,-0.07 0.481,-0.141 0.598,-0.211c-0.375,0.094 -0.902,0.141 -1.582,0.141c-0.445,0 -0.844,-0.059 -1.195,-0.176l-0.418,-0.141l0.246,0.106c0.164,0.094 0.515,0.199 1.051,0.316l-0.493,-0.07l-0.91,-0.246l0.422,0.14c0.211,0.094 0.5,0.188 0.879,0.282l-0.844,-0.141c-0.164,-0.047 -0.433,-0.129 -0.808,-0.246c-0.211,-0.047 -0.481,-0.094 -0.809,-0.141l1.723,0.563c0.398,0.117 0.691,0.234 0.879,0.351l-1.055,-0.211l0.422,0.211c0.328,0.165 0.621,0.247 0.879,0.247l0.98,-0.106l-0.664,0c-0.164,0 -0.281,-0.023 -0.351,-0.07l-0.071,-0.071l0.84,0c0.328,0 0.668,-0.058 1.02,-0.175z" id="path318"/>
  </clipPath>
  <clipPath id="clipPath324">
   <path  d="m-16.382,-9.0519l8.8974,0l0,4.236l-8.8974,0l0,-4.236z" id="path326"/>
  </clipPath>
  <mask id="mask334">
   <g id="g336">
    <g clip-path="url(#clipPath324)" id="g338">
     <path fill="url(#linearGradient328)"  d="m-16.382,-9.0519l8.8974,0l0,4.236l-8.8974,0l0,-4.236z" id="path340"/>
    </g>
   </g>
  </mask>
  <clipPath id="clipPath356">
   <path  d="m13.18156,21.094l0.176,0.246l1.196,1.828l-0.528,-0.316l-0.492,-0.633l0.035,0.176l0.422,0.738l-0.492,-0.492c-0.164,-0.141 -0.305,-0.375 -0.422,-0.703c-0.07,-0.165 -0.117,-0.305 -0.141,-0.422c0.047,0.257 0.153,0.574 0.317,0.949c0.094,0.258 0.199,0.433 0.316,0.527c0.07,0.07 0.117,0.106 0.141,0.106c-0.071,0 -0.129,-0.036 -0.176,-0.106l-0.387,-0.351l0.211,0.316c0.141,0.234 0.281,0.398 0.422,0.492l0.317,0.106l-0.317,-0.387l0.281,0.176c0.071,0.07 0.235,0.152 0.493,0.246l-0.247,-0.211l-0.105,-0.281l0.242,0.211c0.117,0.093 0.293,0.175 0.528,0.246l-0.176,-0.141l-0.176,-0.387l0.352,0.387l-0.207,-0.281l-0.25,-0.422l0.281,0.246c0.117,0.141 0.281,0.246 0.492,0.316l-0.352,-0.351l-0.281,-0.387l0.527,0.352c0.141,0.14 0.34,0.258 0.598,0.351l-0.945,-0.808l-0.528,-0.563l0.176,0.281l0.137,0.317c-0.047,-0.024 -0.105,-0.07 -0.176,-0.141c-0.113,-0.117 -0.207,-0.246 -0.277,-0.386c-0.141,-0.235 -0.34,-0.481 -0.598,-0.739l0.699,1.336l-0.457,-0.633c-0.183,-0.281 -0.394,-0.55 -0.629,-0.808z" id="path358"/>
  </clipPath>
  <clipPath id="clipPath364">
   <path  d="m-4.6477,-21.369l6.6515,0l0,7.0949l-6.6515,0l0,-7.0949z" id="path366"/>
  </clipPath>
  <mask id="mask374">
   <g id="g376">
    <g clip-path="url(#clipPath364)" id="g378">
     <path fill="url(#linearGradient368)"  d="m-4.6477,-21.369l6.6515,0l0,7.0949l-6.6515,0l0,-7.0949z" id="path380"/>
    </g>
   </g>
  </mask>
  <clipPath id="clipPath396">
   <path  d="m7.73656,24.078c-0.324,0.164 -0.558,0.457 -0.699,0.879l-0.106,0.563l0.106,-0.317c0.094,-0.234 0.199,-0.41 0.312,-0.527c0.188,-0.188 0.504,-0.317 0.95,-0.387c0.234,-0.039 0.515,-0.039 0.843,0l-0.984,-0.141l0.457,-0.07c0.258,-0.019 0.621,0 1.09,0.074c-0.047,-0.074 -0.352,-0.117 -0.914,-0.144c-0.352,-0.02 -0.621,0 -0.809,0.07l0.176,-0.101c0.211,-0.094 0.539,-0.133 0.984,-0.106c-0.375,-0.098 -0.843,-0.027 -1.406,0.207z" id="path398"/>
  </clipPath>
  <clipPath id="clipPath404">
   <path  d="m5.449,-1.4514l7.0028,0l0,6.3662l-7.0028,0l0,-6.3662z" id="path406"/>
  </clipPath>
  <mask id="mask414">
   <g id="g416">
    <g clip-path="url(#clipPath404)" id="g418">
     <path fill="url(#linearGradient408)"  d="m5.449,-1.4514l7.0028,0l0,6.3662l-7.0028,0l0,-6.3662z" id="path420"/>
    </g>
   </g>
  </mask>
  <clipPath id="clipPath436">
   <path  d="m11.70956,19.898c0.094,-0.023 0.222,0.082 0.387,0.321l0.453,0.699c-0.094,-0.328 -0.211,-0.582 -0.348,-0.773l-0.387,-0.418l0.282,0.101l0.316,0.211c-0.141,-0.164 -0.281,-0.281 -0.422,-0.348l-0.246,-0.144c0,-0.07 0.141,-0.031 0.422,0.109l0.562,0.242c-0.187,-0.257 -0.644,-0.421 -1.371,-0.488c-0.469,-0.047 -0.832,-0.058 -1.09,-0.035l-0.246,0.035l0.211,0.035c0.422,-0.07 0.762,0.012 1.02,0.246c0.258,0.231 0.5,0.512 0.734,0.84l-0.277,-0.633z" id="path438"/>
  </clipPath>
  <clipPath id="clipPath444">
   <path  d="m12.452,3.0046l6.3662,0l0,5.0929l-6.3662,0l0,-5.0929z" id="path446"/>
  </clipPath>
  <mask id="mask454">
   <g id="g456">
    <g clip-path="url(#clipPath444)" id="g458">
     <path fill="url(#linearGradient448)"  d="m12.452,3.0046l6.3662,0l0,5.0929l-6.3662,0l0,-5.0929z" id="path460"/>
    </g>
   </g>
  </mask>
  <clipPath id="clipPath476">
   <path  d="m21.50656,20.566l0.386,-0.316c0.141,-0.141 0.34,-0.27 0.598,-0.387c-0.094,0.047 -0.187,0.129 -0.281,0.246l-0.422,0.563l0.422,-0.457c0.164,-0.164 0.375,-0.27 0.633,-0.317l-0.246,0.176l-0.352,0.317l0.281,-0.211l0.317,-0.106l-0.246,0.176l-0.528,0.668l0.633,-0.527c0.281,-0.258 0.41,-0.317 0.387,-0.176l-0.422,0.562l0.879,-0.703c0.445,-0.304 0.679,-0.433 0.703,-0.386c0.07,-0.047 0.058,-0.071 -0.035,-0.071l-0.633,0.176l0.316,-0.176c0.141,-0.07 0.352,-0.14 0.633,-0.211l-0.422,0.035l-0.703,0.145l0.563,-0.25c0.218,-0.074 0.398,-0.129 0.543,-0.156c-0.344,0.039 -0.817,0.14 -1.422,0.297c-0.489,0.14 -0.903,0.363 -1.231,0.668l-0.351,0.421z" id="path478"/>
  </clipPath>
  <clipPath id="clipPath484">
   <path  d="m27.731,-4.6344l6.3662,0l0,5.0929l-6.3662,0l0,-5.0929z" id="path486"/>
  </clipPath>
  <mask id="mask494">
   <g id="g496">
    <g clip-path="url(#clipPath484)" id="g498">
     <path fill="url(#linearGradient488)"  d="m27.731,-4.6344l6.3662,0l0,5.0929l-6.3662,0l0,-5.0929z" id="path500"/>
    </g>
   </g>
  </mask>
  <clipPath id="clipPath516">
   <path  d="m23.61556,23.273l-0.176,0l-0.246,-0.07l1.332,-0.035l-1.051,-0.141l1.473,0l-1.789,-0.175c-0.398,-0.024 -0.727,0 -0.984,0.07l-0.282,0.105c0.375,-0.07 0.657,-0.07 0.844,0l-1.09,0.211l0.387,-0.035c0.188,-0.023 0.398,-0.012 0.633,0.035l-0.563,0c-0.14,0 -0.304,0.047 -0.492,0.141l-0.246,0.141l0.668,-0.18c0.328,-0.067 0.539,-0.082 0.633,-0.031l-0.176,0l-0.281,0.171l1.406,-0.207z" id="path518"/>
  </clipPath>
  <clipPath id="clipPath524">
   <path  d="m25.821,-8.4545l6.3662,0l0,5.0929l-6.3662,0l0,-5.0929z" id="path526"/>
  </clipPath>
  <mask id="mask534">
   <g id="g536">
    <g clip-path="url(#clipPath524)" id="g538">
     <path fill="url(#linearGradient528)"  d="m25.821,-8.4545l6.3662,0l0,5.0929l-6.3662,0l0,-5.0929z" id="path540"/>
    </g>
   </g>
  </mask>
  <clipPath id="clipPath556">
   <path  d="m19.22456,25.344c0.188,-0.094 0.434,-0.141 0.739,-0.141c0.234,0 0.383,0.024 0.453,0.07c-0.113,-0.093 -0.278,-0.152 -0.492,-0.175c-0.211,-0.024 -0.371,-0.012 -0.489,0.035l-0.211,0.211z" id="path558"/>
  </clipPath>
  <clipPath id="clipPath564">
   <path  d="m22.064,-8.2353l3.1828,0l0,2.5292l-3.1828,0l0,-2.5292z" id="path566"/>
  </clipPath>
  <mask id="mask574">
   <g id="g576">
    <g clip-path="url(#clipPath564)" id="g578">
     <path fill="url(#linearGradient568)"  d="m22.064,-8.2353l3.1828,0l0,2.5292l-3.1828,0l0,-2.5292z" id="path580"/>
    </g>
   </g>
  </mask>
  <clipPath id="clipPath596">
   <path  d="m21.64656,21.375l-0.211,0.07l0.211,-0.211c0.094,-0.07 0.176,-0.164 0.246,-0.281l-0.316,0.246l-0.387,0.141l0.075,-0.035l0.207,-0.317c-0.047,0 -0.149,0.071 -0.317,0.211c-0.09,0.094 -0.164,0.129 -0.211,0.106l0,-0.071l0.141,-0.422l-0.211,0.317l-0.524,0.387l0.493,-0.176l0,0.105l-0.075,0.141l0.282,-0.106l-0.348,0.352l0.316,-0.141c0.141,-0.093 0.247,-0.129 0.317,-0.105l-0.387,0.387l0.527,-0.282c0.141,-0.093 0.375,-0.304 0.704,-0.632l-0.563,0.457l0.246,-0.246l-0.215,0.105z" id="path598"/>
  </clipPath>
  <clipPath id="clipPath604">
   <path  d="m24.325,-11.883l5.0908,0l0,4.9507l-5.0908,0l0,-4.9507z" id="path606"/>
  </clipPath>
  <mask id="mask614">
   <g id="g616">
    <g clip-path="url(#clipPath604)" id="g618">
     <path fill="url(#linearGradient608)"  d="m24.325,-11.883l5.0908,0l0,4.9507l-5.0908,0l0,-4.9507z" id="path620"/>
    </g>
   </g>
  </mask>
  <clipPath id="clipPath636">
   <path  d="m20.41656,23.379l0.07,-0.07c0.07,-0.047 0.164,-0.082 0.281,-0.106l0.387,-0.07l-0.914,0.14l-0.527,0.137l0.703,0.035l-0.77,0.352l0.7,0l-0.247,0.176l-0.281,0.07l-0.035,0.07l0.492,-0.14l0.317,-0.141l-0.352,0.07l0.633,-0.382l-0.527,0.14l-0.141,0l0.773,-0.281c-0.187,-0.024 -0.328,-0.024 -0.422,0l-0.14,0z" id="path638"/>
  </clipPath>
  <clipPath id="clipPath644">
   <path  d="m23.39,-0.18644l4.7177,0l0,3.5772l-4.7177,0l0,-3.5772z" id="path646"/>
  </clipPath>
  <mask id="mask654">
   <g id="g656">
    <g clip-path="url(#clipPath644)" id="g658">
     <path fill="url(#linearGradient648)"  d="m23.39,-0.18644l4.7177,0l0,3.5772l-4.7177,0l0,-3.5772z" id="path660"/>
    </g>
   </g>
  </mask>
  <radialGradient r="25.948" gradientTransform="matrix(0.610480010509491,-0.34751999378204346,0.34751999378204346,0.610480010509491,-3.5344450399279594,16.927000045776367)" cx="15.533" cy="9.396" gradientUnits="userSpaceOnUse" id="radialGradient24">
   <stop stop-color="#ff280d" offset="0" id="stop26"/>
   <stop stop-color="#630000" offset="1" id="stop28"/>
  </radialGradient>
  <linearGradient x1="1.18433" y1="0.43232" x2="-0.05109" y2="0.53632" id="linearGradient266">
   <stop stop-color="#599c00" offset="0" id="stop268"/>
   <stop stop-color="#425200" offset="1" id="stop270"/>
  </linearGradient>
  <linearGradient x1="0.1224" y1="0.51657" x2="1.45413" y2="0.44517" id="linearGradient284">
   <stop stop-color="#599c00" offset="0" id="stop286"/>
   <stop stop-color="#425200" offset="1" id="stop288"/>
  </linearGradient>
  <linearGradient x1="-0.00697" y1="0.4997" x2="0.99986" y2="0.4997" id="linearGradient302">
   <stop stop-color="#599c00" offset="0" id="stop304"/>
   <stop stop-color="#425200" offset="1" id="stop306"/>
  </linearGradient>
  <linearGradient x1="0.2621" y1="0.43853" x2="0.58129" y2="0.43853" id="linearGradient328">
   <stop stop-color="#ffffff" offset="0" id="stop330"/>
   <stop stop-opacity="0" stop-color="#ffffff" offset="1" id="stop332"/>
  </linearGradient>
  <linearGradient x1="-5.15298" y1="-27.17766" x2="-4.53585" y2="-27.17766" id="linearGradient344">
   <stop stop-color="#97c41b" offset="0" id="stop346"/>
   <stop stop-color="#cdff00" offset="1" id="stop348"/>
  </linearGradient>
  <linearGradient x1="0.28362" y1="0.48105" x2="0.62147" y2="0.48105" id="linearGradient368">
   <stop stop-color="#ffffff" offset="0" id="stop370"/>
   <stop stop-opacity="0" stop-color="#ffffff" offset="1" id="stop372"/>
  </linearGradient>
  <linearGradient x1="-5.49234" y1="-15.64503" x2="-4.70218" y2="-15.64503" id="linearGradient384">
   <stop stop-color="#97c41b" offset="0" id="stop386"/>
   <stop stop-color="#cdff00" offset="1" id="stop388"/>
  </linearGradient>
  <linearGradient x1="0.26764" y1="0.51261" x2="0.76255" y2="0.51261" id="linearGradient408">
   <stop stop-color="#ffffff" offset="0" id="stop410"/>
   <stop stop-opacity="0" stop-color="#ffffff" offset="1" id="stop412"/>
  </linearGradient>
  <linearGradient x1="0.16878" y1="-13.01374" x2="1.41817" y2="-13.01374" id="linearGradient424">
   <stop stop-color="#58730f" offset="0" id="stop426"/>
   <stop stop-color="#576b00" offset="1" id="stop428"/>
  </linearGradient>
  <linearGradient x1="0.40432" y1="0.43303" x2="0.79074" y2="0.43303" id="linearGradient448">
   <stop stop-color="#ffffff" offset="0" id="stop450"/>
   <stop stop-opacity="0" stop-color="#ffffff" offset="1" id="stop452"/>
  </linearGradient>
  <linearGradient x1="1.87699" y1="-9.10426" x2="2.78574" y2="-9.10426" id="linearGradient464">
   <stop stop-color="#58730f" offset="0" id="stop466"/>
   <stop stop-color="#576b00" offset="1" id="stop468"/>
  </linearGradient>
  <linearGradient x1="0.21363" y1="0.50117" x2="0.84587" y2="0.50117" id="linearGradient488">
   <stop stop-color="#ffffff" offset="0" id="stop490"/>
   <stop stop-opacity="0" stop-color="#ffffff" offset="1" id="stop492"/>
  </linearGradient>
  <linearGradient x1="2.53424" y1="-12.23361" x2="3.8657" y2="-12.23361" id="linearGradient504">
   <stop stop-color="#58730f" offset="0" id="stop506"/>
   <stop stop-color="#576b00" offset="1" id="stop508"/>
  </linearGradient>
  <linearGradient x1="0.19415" y1="0.45049" x2="0.79121" y2="0.45049" id="linearGradient528">
   <stop stop-color="#ffffff" offset="0" id="stop530"/>
   <stop stop-opacity="0" stop-color="#ffffff" offset="1" id="stop532"/>
  </linearGradient>
  <linearGradient x1="1.61027" y1="-42.83867" x2="2.67141" y2="-42.83867" id="linearGradient544">
   <stop stop-color="#58730f" offset="0" id="stop546"/>
   <stop stop-color="#576b00" offset="1" id="stop548"/>
  </linearGradient>
  <linearGradient x1="0.24538" y1="0.68725" x2="0.63875" y2="0.68725" id="linearGradient568">
   <stop stop-color="#ffffff" offset="0" id="stop570"/>
   <stop stop-opacity="0" stop-color="#ffffff" offset="1" id="stop572"/>
  </linearGradient>
  <linearGradient x1="3.10151" y1="-122.39715" x2="4.15185" y2="-122.39715" id="linearGradient584">
   <stop stop-color="#58730f" offset="0" id="stop586"/>
   <stop stop-color="#576b00" offset="1" id="stop588"/>
  </linearGradient>
  <linearGradient x1="-0.04007" y1="0.49989" x2="0.55865" y2="0.49989" id="linearGradient608">
   <stop stop-color="#ffffff" offset="0" id="stop610"/>
   <stop stop-opacity="0" stop-color="#ffffff" offset="1" id="stop612"/>
  </linearGradient>
  <linearGradient x1="2.10388" y1="-26.02947" x2="3.77037" y2="-26.02947" id="linearGradient624">
   <stop stop-color="#97c41b" offset="0" id="stop626"/>
   <stop stop-color="#cdff00" offset="1" id="stop628"/>
  </linearGradient>
  <linearGradient x1="0.09517" y1="0.66064" x2="0.67724" y2="0.66064" id="linearGradient648">
   <stop stop-color="#ffffff" offset="0" id="stop650"/>
   <stop stop-opacity="0" stop-color="#ffffff" offset="1" id="stop652"/>
  </linearGradient>
  <linearGradient x1="2.8309" y1="-21.38385" x2="4.65186" y2="-21.38385" id="linearGradient664">
   <stop stop-color="#97c41b" offset="0" id="stop666"/>
   <stop stop-color="#cdff00" offset="1" id="stop668"/>
  </linearGradient>
 </defs>
 <metadata>image/svg+xmlOpenclipart</metadata>
 <g>
  <title>Layer 1</title>
  <g transform="matrix(1.25 0 0 -1.25 0 40)" id="g10">
   <g id="g12">
    <g id="g14">
     <g id="g16">
      <g id="g22">
       <path fill="url(#radialGradient24)" fill-rule="evenodd"  d="m18.34656,25.484c2.203,0.071 4.273,-0.656 6.218,-2.175c3.114,-2.414 4.543,-5.434 4.282,-9.063c-0.211,-2.883 -1.18,-5.187 -2.915,-6.922c-1.71,-1.707 -3.781,-2.832 -6.218,-3.371c-2.34,-0.515 -4.879,-0.48 -7.621,0.106c-2.809,0.609 -5.055,1.886 -6.743,3.828c-1.851,2.156 -2.613,4.754 -2.285,7.801c0.305,2.832 1.594,5.136 3.867,6.917c1.801,1.43 3.571,2.165 5.301,2.211c1.524,0.047 3.563,0.27 6.114,0.668z" id="path30"/>
      </g>
     </g>
    </g>
    <g id="g32">
     <g mask="url(#mask40)" id="g48">
      <g id="g60">
       <g clip-path="url(#clipPath52)" id="g62">
        <g id="g64">
         <g id="g68">
          <g clip-path="url(#clipPath56)" id="g70">
           <g id="g72">
            <path fill="#f28457" fill-rule="evenodd"  d="m13.80656,22.773c2.086,-0.328 3.793,-1.367 5.129,-3.125c1.707,-2.222 1.977,-4.625 0.809,-7.199c-1.125,-2.484 -3.023,-4.074 -5.691,-4.777c-2.649,-0.656 -4.989,-0.41 -7.024,0.738c-2.109,1.168 -3.187,2.926 -3.234,5.266c-0.024,2.226 0.398,4.09 1.265,5.586c0.75,1.289 1.77,2.203 3.055,2.738c1.969,0.82 3.863,1.078 5.691,0.773z" id="path74"/>
           </g>
          </g>
         </g>
        </g>
       </g>
      </g>
     </g>
    </g>
    <g id="g76">
     <g mask="url(#mask84)" id="g92">
      <g id="g104">
       <g clip-path="url(#clipPath96)" id="g106">
        <g id="g108">
         <g id="g112">
          <g clip-path="url(#clipPath100)" id="g114">
           <g id="g116">
            <path fill="#571b09" fill-rule="evenodd"  d="m29.01456,17.086c0.468,-2.578 0.011,-5.117 -1.372,-7.625l-0.246,-0.383l-0.035,-0.07c-0.469,-0.656 -0.84,-1.125 -1.121,-1.406c-1.219,-1.219 -2.812,-2.133 -4.777,-2.739c-2.18,-0.539 -4.215,-0.785 -6.114,-0.738c-0.843,0.047 -1.589,0.129 -2.246,0.246l-0.386,0.07c0.656,-0.07 1.488,-0.058 2.492,0.036c2.015,0.164 3.91,0.628 5.691,1.402c2.016,0.891 3.547,2.402 4.602,4.531c0.984,1.969 1.336,3.969 1.054,6.008c-0.398,2.738 -1.605,4.824 -3.621,6.25c0.379,0.023 0.809,0.07 1.301,0.141c0.375,0.07 0.656,0.093 0.844,0.07c0.351,-0.047 0.668,-0.141 0.949,-0.281c1.098,-1.098 1.895,-2.246 2.387,-3.442c0.258,-0.633 0.457,-1.32 0.598,-2.07z" id="path118"/>
           </g>
          </g>
         </g>
        </g>
       </g>
      </g>
     </g>
    </g>
    <g id="g120">
     <g mask="url(#mask128)" id="g136">
      <g id="g148">
       <g clip-path="url(#clipPath140)" id="g150">
        <g id="g152">
         <g id="g156">
          <g clip-path="url(#clipPath144)" id="g158">
           <g id="g160">
            <path fill="#f28457" fill-rule="evenodd"  d="m12.53756,22c1.078,0 2.027,-0.375 2.848,-1.125c0.886,-0.793 1.39,-1.836 1.507,-3.125c0.164,-1.945 -0.328,-3.652 -1.472,-5.129c-1.242,-1.59 -2.895,-2.445 -4.953,-2.562c-2.203,-0.141 -3.793,0.621 -4.778,2.281c-0.937,1.57 -1.066,3.371 -0.386,5.41c0.539,1.57 1.664,2.715 3.371,3.441c1.218,0.539 2.507,0.809 3.863,0.809z" id="path162"/>
           </g>
          </g>
         </g>
        </g>
       </g>
      </g>
     </g>
    </g>
    <g id="g164">
     <g mask="url(#mask172)" id="g180">
      <g id="g192">
       <g clip-path="url(#clipPath184)" id="g194">
        <g id="g196">
         <g id="g200">
          <g clip-path="url(#clipPath188)" id="g202">
           <g id="g204">
            <path fill="#ffffff" fill-rule="evenodd"  d="m9.79956,18.258c0.187,-0.516 0.152,-0.961 -0.106,-1.336c-0.351,-0.469 -0.715,-0.774 -1.086,-0.914c-0.328,-0.117 -0.597,-0.082 -0.808,0.105c-0.516,0.446 -0.692,1.02 -0.528,1.723c0.164,0.633 0.481,0.996 0.95,1.09c0.793,0.164 1.32,-0.059 1.578,-0.668z" id="path206"/>
           </g>
          </g>
         </g>
        </g>
       </g>
      </g>
     </g>
    </g>
    <g id="g208">
     <g mask="url(#mask216)" id="g224">
      <g id="g236">
       <g clip-path="url(#clipPath228)" id="g238">
        <g id="g240">
         <g id="g244">
          <g clip-path="url(#clipPath232)" id="g246">
           <g id="g248">
            <path fill="#ffffff" fill-rule="evenodd"  d="m8.07656,15.129c0.191,-0.141 0.246,-0.328 0.176,-0.563c-0.071,-0.211 -0.231,-0.281 -0.488,-0.211c-0.258,0.071 -0.317,0.247 -0.176,0.528c0.14,0.305 0.3,0.387 0.488,0.246z" id="path250"/>
           </g>
          </g>
         </g>
        </g>
       </g>
      </g>
     </g>
    </g>
    <path fill="#5e9119" fill-rule="evenodd"  d="m25.40456,22.922c-0.183,0 -0.687,-0.047 -1.508,-0.141c-0.562,-0.047 -1.242,-0.023 -2.039,0.071c-0.867,0.093 -1.66,0.257 -2.386,0.488l-0.809,0.32l1.371,-0.844c1.004,-0.632 1.801,-1.195 2.387,-1.687c1.172,-1.008 2.051,-1.559 2.633,-1.652c0.492,-0.067 0.902,-0.032 1.23,0.109c-0.117,-0.145 -0.316,-0.274 -0.598,-0.387c-0.582,-0.187 -1.285,-0.176 -2.105,0.035c-0.75,0.207 -1.336,0.489 -1.758,0.84c-0.539,0.492 -1.078,0.949 -1.617,1.371c-0.84,0.633 -1.707,1.16 -2.598,1.582l-1.09,0.453c-0.796,-0.468 -1.554,-1.132 -2.281,-2c-0.351,-0.445 -0.726,-0.937 -1.125,-1.476c-0.375,-0.328 -1.043,-0.574 -2,-0.738c-0.844,-0.141 -1.863,0.105 -3.058,0.738l1.476,-0.492c1.055,-0.184 1.793,0.105 2.215,0.879c0.328,0.539 0.605,1.078 0.84,1.617c0.164,0.375 0.351,0.703 0.562,0.984c0.539,0.656 1.231,1.043 2.075,1.16c0.046,0.067 -0.622,0.176 -2.004,0.313c-0.774,0.07 -1.567,-0.043 -2.387,-0.352c-0.844,-0.324 -1.442,-0.476 -1.793,-0.453c-0.606,0.02 -1.121,0.184 -1.543,0.492c-0.398,0.278 -0.598,0.606 -0.598,0.981l0.035,0.738l0.211,-0.879c0.329,-0.586 0.926,-0.808 1.789,-0.668c0.61,0.094 1.336,0.352 2.18,0.774c0.656,0.351 1.367,0.515 2.141,0.492c0.89,-0.024 1.64,-0.176 2.25,-0.457c0.304,-0.164 0.527,-0.317 0.668,-0.457l0.453,0.316c0.398,0.235 0.797,0.399 1.195,0.492c0.281,0.071 0.715,0.036 1.301,-0.105c0.562,-0.117 1.027,-0.094 1.402,0.07c0.391,0.18 0.66,0.34 0.809,0.473c-0.207,-0.352 -0.5,-0.602 -0.879,-0.754c-0.234,-0.094 -0.664,-0.141 -1.297,-0.141c-0.562,0 -0.902,-0.035 -1.019,-0.105l-0.352,-0.246l0.668,-0.071c0.563,-0.117 1.16,-0.281 1.793,-0.492c1.496,-0.515 2.961,-0.785 4.391,-0.808c1.074,-0.047 2.375,-0.371 3.898,-0.981c-1.219,0.399 -2.262,0.598 -3.129,0.598z" id="path252"/>
    <path fill="#31591e" fill-rule="evenodd"  d="m16.37756,24.395c1.078,-0.094 1.687,-0.2 1.828,-0.317c0.141,-0.14 0.07,-0.266 -0.211,-0.383s-0.68,-0.152 -1.195,-0.105c-0.446,0.047 -0.758,0.148 -0.95,0.316l-0.136,0.246l0.664,0.243z" id="path254"/>
    <g id="g256">
     <g id="g258">
      <g id="g264">
       <path fill="url(#linearGradient266)" fill-rule="evenodd"  d="m17.15056,27.906l-0.14,0.492l0.211,0c0.187,0 0.386,-0.035 0.597,-0.105c0.305,-0.117 0.422,-0.246 0.352,-0.387c-0.305,-0.019 -0.516,-0.019 -0.633,0l-0.387,0z" id="path272"/>
      </g>
     </g>
    </g>
    <g id="g274">
     <g id="g276">
      <g id="g282">
       <path fill="url(#linearGradient284)" fill-rule="evenodd"  d="m17.85356,27.906l0.352,0c-0.082,-0.011 -0.16,-0.047 -0.246,-0.105c-0.258,-0.188 -0.41,-0.598 -0.457,-1.227c-0.071,-1.031 0,-1.875 0.211,-2.531c-0.141,-0.211 -0.504,-0.316 -1.09,-0.316c-0.328,0 -0.574,0.07 -0.738,0.211l-0.172,0.21c0.207,1.43 0.476,2.497 0.804,3.196l0.493,1.054l0.246,-0.246c0.187,-0.16 0.386,-0.246 0.597,-0.246z" id="path290"/>
      </g>
     </g>
    </g>
    <g id="g292">
     <g id="g294">
      <g id="g300">
       <path fill="url(#linearGradient302)" fill-rule="evenodd"  d="m17.22156,26.258c0.07,0.844 0.199,1.312 0.386,1.406c-0.07,-0.027 -0.152,-0.094 -0.246,-0.211l-0.246,-0.738l0.07,0.527c0.164,0.328 0.223,0.539 0.176,0.633l-0.176,0.316c0.188,-0.191 0.411,-0.285 0.668,-0.285l0.317,0c-0.399,-0.066 -0.621,-0.511 -0.668,-1.332c-0.071,-1.031 0,-1.875 0.211,-2.531c-0.141,-0.207 -0.504,-0.313 -1.09,-0.313c-0.324,0 -0.57,0.071 -0.735,0.208l-0.16,0.195c0.075,-0.082 0.278,-0.125 0.618,-0.125c0.117,0 0.175,0.105 0.175,0.32l0.246,0.594l0,-0.317c0,-0.164 0.036,-0.335 0.106,-0.527l0.035,0.422l0.141,0.773l0,-1.121c0.047,-0.164 0.117,-0.152 0.207,0.036c-0.071,0.535 -0.082,1.226 -0.035,2.07z" id="path308"/>
      </g>
     </g>
    </g>
    <path fill="#67a614" fill-rule="evenodd"  d="m17.01056,27.629c0.023,-0.07 0.086,-0.094 0.175,-0.07l-0.316,-0.668c-0.301,-0.821 -0.516,-1.489 -0.629,-2.004c-0.094,-0.422 -0.051,-0.012 0.137,1.23c0.351,1.266 0.562,1.77 0.633,1.512z" id="path310"/>
    <g id="g312">
     <g clip-path="url(#clipPath316)" id="g314">
      <g transform="matrix(-0.69256 -0.11752 -0.11752 0.69256 2.9207 28.4)" id="g320">
       <g mask="url(#mask334)" id="g342">
        <path fill="url(#linearGradient344)" fill-rule="evenodd"  d="m14.15855,25.07977l-0.633,0.105c-0.258,0.024 -0.469,0.024 -0.633,0l-0.176,-0.07l0.492,-0.106l0.317,-0.14l-0.774,0l0.668,-0.141c0.282,-0.07 0.481,-0.141 0.598,-0.211c-0.375,0.094 -0.902,0.141 -1.582,0.141c-0.445,0 -0.844,-0.059 -1.195,-0.176l-0.418,-0.141l0.246,0.106c0.164,0.094 0.515,0.199 1.051,0.316l-0.493,-0.07l-0.91,-0.246l0.422,0.14c0.211,0.094 0.5,0.188 0.879,0.282l-0.844,-0.141c-0.164,-0.047 -0.433,-0.129 -0.808,-0.246c-0.211,-0.047 -0.481,-0.094 -0.809,-0.141l1.723,0.563c0.398,0.117 0.691,0.234 0.879,0.351l-1.055,-0.211l0.422,0.211c0.328,0.165 0.621,0.247 0.879,0.247l0.98,-0.106l-0.664,0c-0.164,0 -0.281,-0.023 -0.351,-0.07l-0.071,-0.071l0.84,0c0.328,0 0.668,-0.058 1.02,-0.175z" id="path350"/>
       </g>
      </g>
     </g>
    </g>
    <g id="g352">
     <g clip-path="url(#clipPath356)" id="g354">
      <g transform="matrix(-0.37512 -0.59392 -0.59392 0.37512 2.9195 28.4)" id="g360">
       <g mask="url(#mask374)" id="g382">
        <path fill="url(#linearGradient384)" fill-rule="evenodd"  d="m13.0468,21.00186l0.176,0.246l1.196,1.828l-0.528,-0.316l-0.492,-0.633l0.035,0.176l0.422,0.738l-0.492,-0.492c-0.164,-0.141 -0.305,-0.375 -0.422,-0.703c-0.07,-0.165 -0.117,-0.305 -0.141,-0.422c0.047,0.257 0.153,0.574 0.317,0.949c0.094,0.258 0.199,0.433 0.316,0.527c0.07,0.07 0.117,0.106 0.141,0.106c-0.071,0 -0.129,-0.036 -0.176,-0.106l-0.387,-0.351l0.211,0.316c0.141,0.234 0.281,0.398 0.422,0.492l0.317,0.106l-0.317,-0.387l0.281,0.176c0.071,0.07 0.235,0.152 0.493,0.246l-0.247,-0.211l-0.105,-0.281l0.242,0.211c0.117,0.093 0.293,0.175 0.528,0.246l-0.176,-0.141l-0.176,-0.387l0.352,0.387l-0.207,-0.281l-0.25,-0.422l0.281,0.246c0.117,0.141 0.281,0.246 0.492,0.316l-0.352,-0.351l-0.281,-0.387l0.527,0.352c0.141,0.14 0.34,0.258 0.598,0.351l-0.945,-0.808l-0.528,-0.563l0.176,0.281l0.137,0.317c-0.047,-0.024 -0.105,-0.07 -0.176,-0.141c-0.113,-0.117 -0.207,-0.246 -0.277,-0.386c-0.141,-0.235 -0.34,-0.481 -0.598,-0.739l0.699,1.336l-0.457,-0.633c-0.183,-0.281 -0.394,-0.55 -0.629,-0.808z" id="path390"/>
       </g>
      </g>
     </g>
    </g>
    <g id="g392">
     <g clip-path="url(#clipPath396)" id="g394">
      <g transform="matrix(0.62832 -0.31416 -0.31416 -0.62832 2.9203 28.4)" id="g400">
       <g mask="url(#mask414)" id="g422">
        <path fill="url(#linearGradient424)" fill-rule="evenodd"  d="m7.75747,24.02926c-0.324,0.164 -0.558,0.457 -0.699,0.879l-0.106,0.563l0.106,-0.317c0.094,-0.234 0.199,-0.41 0.312,-0.527c0.188,-0.188 0.504,-0.317 0.95,-0.387c0.234,-0.039 0.515,-0.039 0.843,0l-0.984,-0.141l0.457,-0.07c0.258,-0.019 0.621,0 1.09,0.074c-0.047,-0.074 -0.352,-0.117 -0.914,-0.144c-0.352,-0.02 -0.621,0 -0.809,0.07l0.176,-0.101c0.211,-0.094 0.539,-0.133 0.984,-0.106c-0.375,-0.098 -0.843,-0.027 -1.406,0.207z" id="path430"/>
       </g>
      </g>
     </g>
    </g>
    <g id="g432">
     <g clip-path="url(#clipPath436)" id="g434">
      <g transform="matrix(0.62832 -0.31416 -0.31416 -0.62832 2.9203 28.4)" id="g440">
       <g mask="url(#mask454)" id="g462">
        <path fill="url(#linearGradient464)" fill-rule="evenodd"  d="m11.73047,19.84926c0.094,-0.023 0.222,0.082 0.387,0.321l0.453,0.699c-0.094,-0.328 -0.211,-0.582 -0.348,-0.773l-0.387,-0.418l0.282,0.101l0.316,0.211c-0.141,-0.164 -0.281,-0.281 -0.422,-0.348l-0.246,-0.144c0,-0.07 0.141,-0.031 0.422,0.109l0.562,0.242c-0.187,-0.257 -0.644,-0.421 -1.371,-0.488c-0.469,-0.047 -0.832,-0.058 -1.09,-0.035l-0.246,0.035l0.211,0.035c0.422,-0.07 0.762,0.012 1.02,0.246c0.258,0.231 0.5,0.512 0.734,0.84l-0.277,-0.633z" id="path470"/>
       </g>
      </g>
     </g>
    </g>
    <g id="g472">
     <g clip-path="url(#clipPath476)" id="g474">
      <g transform="matrix(0.62832 -0.31416 -0.31416 -0.62832 2.9202 28.4)" id="g480">
       <g mask="url(#mask494)" id="g502">
        <path fill="url(#linearGradient504)" fill-rule="evenodd"  d="m21.52747,20.51726l0.386,-0.316c0.141,-0.141 0.34,-0.27 0.598,-0.387c-0.094,0.047 -0.187,0.129 -0.281,0.246l-0.422,0.563l0.422,-0.457c0.164,-0.164 0.375,-0.27 0.633,-0.317l-0.246,0.176l-0.352,0.317l0.281,-0.211l0.317,-0.106l-0.246,0.176l-0.528,0.668l0.633,-0.527c0.281,-0.258 0.41,-0.317 0.387,-0.176l-0.422,0.562l0.879,-0.703c0.445,-0.304 0.679,-0.433 0.703,-0.386c0.07,-0.047 0.058,-0.071 -0.035,-0.071l-0.633,0.176l0.316,-0.176c0.141,-0.07 0.352,-0.14 0.633,-0.211l-0.422,0.035l-0.703,0.145l0.563,-0.25c0.218,-0.074 0.398,-0.129 0.543,-0.156c-0.344,0.039 -0.817,0.14 -1.422,0.297c-0.489,0.14 -0.903,0.363 -1.231,0.668l-0.351,0.421z" id="path510"/>
       </g>
      </g>
     </g>
    </g>
    <g id="g512">
     <g clip-path="url(#clipPath516)" id="g514">
      <g transform="matrix(0.62832 -0.31416 -0.31416 -0.62832 2.9203 28.4)" id="g520">
       <g mask="url(#mask534)" id="g542">
        <path fill="url(#linearGradient544)" fill-rule="evenodd"  d="m23.63647,23.22426l-0.176,0l-0.246,-0.07l1.332,-0.035l-1.051,-0.141l1.473,0l-1.789,-0.175c-0.398,-0.024 -0.727,0 -0.984,0.07l-0.282,0.105c0.375,-0.07 0.657,-0.07 0.844,0l-1.09,0.211l0.387,-0.035c0.188,-0.023 0.398,-0.012 0.633,0.035l-0.563,0c-0.14,0 -0.304,0.047 -0.492,0.141l-0.246,0.141l0.668,-0.18c0.328,-0.067 0.539,-0.082 0.633,-0.031l-0.176,0l-0.281,0.171l1.406,-0.207z" id="path550"/>
       </g>
      </g>
     </g>
    </g>
    <g id="g552">
     <g clip-path="url(#clipPath556)" id="g554">
      <g transform="matrix(0.63112 -0.30856 -0.30856 -0.63112 2.9198 28.4)" id="g560">
       <g mask="url(#mask574)" id="g582">
        <path fill="url(#linearGradient584)" fill-rule="evenodd"  d="m19.2459,25.29614c0.188,-0.094 0.434,-0.141 0.739,-0.141c0.234,0 0.383,0.024 0.453,0.07c-0.113,-0.093 -0.278,-0.152 -0.492,-0.175c-0.211,-0.024 -0.371,-0.012 -0.489,0.035l-0.211,0.211z" id="path590"/>
       </g>
      </g>
     </g>
    </g>
    <g id="g592">
     <g clip-path="url(#clipPath596)" id="g594">
      <g transform="matrix(0.53008 -0.46096 -0.46096 -0.53008 2.9199 28.4)" id="g600">
       <g mask="url(#mask614)" id="g622">
        <path fill="url(#linearGradient624)" fill-rule="evenodd"  d="m21.65223,21.30349l-0.211,0.07l0.211,-0.211c0.094,-0.07 0.176,-0.164 0.246,-0.281l-0.316,0.246l-0.387,0.141l0.075,-0.035l0.207,-0.317c-0.047,0 -0.149,0.071 -0.317,0.211c-0.09,0.094 -0.164,0.129 -0.211,0.106l0,-0.071l0.141,-0.422l-0.211,0.317l-0.524,0.387l0.493,-0.176l0,0.105l-0.075,0.141l0.282,-0.106l-0.348,0.352l0.316,-0.141c0.141,-0.093 0.247,-0.129 0.317,-0.105l-0.387,0.387l0.527,-0.282c0.141,-0.093 0.375,-0.304 0.704,-0.632l-0.563,0.457l0.246,-0.246l-0.215,0.105z" id="path630"/>
       </g>
      </g>
     </g>
    </g>
    <g id="g632">
     <g clip-path="url(#clipPath636)" id="g634">
      <g transform="matrix(0.69072 -0.12792 -0.12792 -0.69072 2.9199 28.4)" id="g640">
       <g mask="url(#mask654)" id="g662">
        <path fill="url(#linearGradient664)" fill-rule="evenodd"  d="m20.44716,23.35915l0.07,-0.07c0.07,-0.047 0.164,-0.082 0.281,-0.106l0.387,-0.07l-0.914,0.14l-0.527,0.137l0.703,0.035l-0.77,0.352l0.7,0l-0.247,0.176l-0.281,0.07l-0.035,0.07l0.492,-0.14l0.317,-0.141l-0.352,0.07l0.633,-0.382l-0.527,0.14l-0.141,0l0.773,-0.281c-0.187,-0.024 -0.328,-0.024 -0.422,0l-0.14,0z" id="path670"/>
       </g>
      </g>
     </g>
    </g>
   </g>
  </g>
  <text transform="matrix(1.17676 0 0 1 -2.31727 0)" stroke="#000" xml:space="preserve" text-anchor="start" font-family="Noto Sans JP" font-size="24" id="svg_3" y="31.29187" x="11.80893" stroke-width="0" fill="#000000">+</text>
 </g>
</svg>