<svg xmlns="http://www.w3.org/2000/svg" width="24" height="24" style=""><rect id="backgroundrect" width="100%" height="100%" x="0" y="0" fill="none" stroke="none" class="" style=""/><g class="currentLayer" style=""><title>Layer 1</title><path d="M21.665058290302753,11.921001430511474 c-1.342418396294117,-0.39000000000000035 -1.8785884758830074,-0.538 -3.5399184436798095,-0.921 c0,0 -2.370908214390278,-2.359 -2.822367407798767,-2.816 c-0.5660680394172674,-0.5720000000000005 -1.0394524033665655,-1.184 -2.938969451129436,-1.184 h-7.867149829506874 c-0.509261915743351,0 -0.7325000157952314,0.547 -0.06876530760526667,1 c-0.7404728050827986,0.6020000000000005 -1.6144898307323456,1.3800000000000001 -2.2503197764158247,2.027 c-1.4311156771183013,1.455 -2.177568074166775,2.3850000000000002 -2.177568074166775,4.255 c0,1.7600000000000002 1.0384558047056198,3.718 3.163204149842262,3.718 h0.009965986609458933 c0.4115952469706538,1.162 1.5068571753501891,2 2.8064218292236327,2 c1.2995646538734436,0 2.3948265822529793,-0.8380000000000005 2.8064218292236327,-2 h6.345343674242496 c0.4115952469706538,1.162 1.5068571753501891,2 2.8064218292236327,2 s2.3948265822529793,-0.8380000000000005 2.8064218292236327,-2 h0.6826700827479371 c1.9872177299261093,0 2.491496652364731,-1.776 2.491496652364731,-3.165 c0,-2.041 -1.119180296242237,-2.584 -2.2533095723986625,-2.914 zm-15.6854663246274,6.279 c-0.6597483135461816,0 -1.1959183931350708,-0.538 -1.1959183931350708,-1.2 s0.5361700795888901,-1.2 1.1959183931350708,-1.2 s1.1959183931350708,0.538 1.1959183931350708,1.2 s-0.5361700795888901,1.2 -1.1959183931350708,1.2 zm3.563836811542511,-6.2 c-1.0673571658730507,0 -3.488095313310623,-0.10600000000000002 -5.201248411476612,-0.7500000000000006 c0.5760340260267263,-0.7500000000000006 0.9946054636240006,-1.222 1.2656802994012832,-1.536 c0.31691837418079405,-0.36800000000000027 0.8700306310057646,-0.7140000000000005 1.5556905097365379,-0.7140000000000005 h2.379877602338791 v3 zm0.9965986609458923,-3 h1.8287585428357125 c0.8790000189542777,0 1.4231428878307342,0.49300000000000027 2.015122492432594,1.105 c0.45046259474754335,0.466 1.7261088807582858,1.895 1.7261088807582858,1.895 h-5.5689933173656465 v-3 zm7.398748458862305,9.2 c-0.6597483135461816,0 -1.1959183931350708,-0.538 -1.1959183931350708,-1.2 s0.5361700795888901,-1.2 1.1959183931350708,-1.2 s1.1959183931350708,0.538 1.1959183931350708,1.2 s-0.5361700795888901,1.2 -1.1959183931350708,1.2 zm-3.6126701459288597,-14.7 c0,0.276 -0.22323810005188005,0.5 -0.49829933047294617,0.5 h-1.8686224892735481 v1 h-1.8825748705267908 c-0.8401326711773878,0 -1.5825986735820772,-0.41700000000000026 -2.0340578669905662,-1.057 c-0.41657824027538326,-0.5900000000000005 -1.0952619283795357,-0.9430000000000005 -1.815802760243416,-0.9430000000000005 h-0.018935374557971972 c-4.00333682101965,0 -5.237125963270664,3.215 -3.4900885106325146,5.254 l-0.7325000157952314,0.6770000000000008 c-2.333037465274334,-2.6790000000000003 -0.6607449122071274,-6.931 4.222588526427746,-6.931 h0.018935374557971972 c0.7215374305248266,0 1.3992245199680327,-0.35200000000000026 1.815802760243416,-0.9430000000000005 c0.4514591934084892,-0.6400000000000007 1.193925195813179,-1.057 2.0340578669905662,-1.057 h1.8825748705267908 v1 h1.8686224892735481 c0.2750612304210663,0 0.49829933047294617,0.22400000000000017 0.49829933047294617,0.5 s-0.22323810005188005,0.5 -0.49829933047294617,0.5 h-1.8686224892735481 v1 h1.8686224892735481 c0.2750612304210663,0 0.49829933047294617,0.22400000000000017 0.49829933047294617,0.5 z" id="svg_1" class="selected" fill="#41e841" fill-opacity="1"/></g></svg>